<svg xmlns="http://www.w3.org/2000/svg" width="73.577" height="55.723" viewBox="0 0 73.577 55.723">
  <path id="Path_20510" data-name="Path 20510" d="M21.662,14.867c-2.17-2.227-5.564-3.441-9.813-3.509A27.785,27.785,0,0,0,.623,13.547a1.022,1.022,0,0,0-.109,1.827,11.135,11.135,0,0,1,4.786,5.6c.238.624.423,1.274.618,1.962.145.511.3,1.04.47,1.56a10.009,10.009,0,0,0,1.119,2.389,8.46,8.46,0,0,0,7.189,3.77,9.917,9.917,0,0,0,7.88-3.9,27.506,27.506,0,0,1,3.6,4.239,1.023,1.023,0,0,0,.26.389,17.792,17.792,0,0,1,2.625,6.309c1.042,5.39-.847,11.182-5.612,17.231a8.5,8.5,0,0,0-11.46-2.672L3.83,57.1a1.022,1.022,0,0,0-.356,1.4l1.645,2.767L1.136,63.63A1.022,1.022,0,1,0,2.16,65.4l.021-.012,3.982-2.367,3.29,5.534L5.47,70.921A1.022,1.022,0,1,0,6.5,72.687l.016-.009L10.5,70.31l1.645,2.767a1.022,1.022,0,0,0,1.4.356h0L21.7,68.584a8.5,8.5,0,0,0,2.961-11.642l-.092-.156c5.507-6.749,7.693-13.3,6.5-19.488a19.752,19.752,0,0,0-2.89-6.989A35.85,35.85,0,0,1,29.642,22.7a12.8,12.8,0,0,0,7.6,2.642l.215,0a10.976,10.976,0,0,0,9.9-5.7,12.923,12.923,0,0,0,1.156-3.2c.166-.7.3-1.408.429-2.095.176-.937.343-1.822.585-2.685a15.052,15.052,0,0,1,5.759-8.121,1.022,1.022,0,0,0-.274-1.81A36.425,36.425,0,0,0,40.108.2c-5.5.59-9.744,2.552-12.279,5.675A12.191,12.191,0,0,0,26.4,18.785a11.035,11.035,0,0,0,1.593,2.367,38.013,38.013,0,0,0-1.605,6.723,32.679,32.679,0,0,0-2.776-2.959c.022-.053.045-.106.066-.16a9.474,9.474,0,0,0-2.015-9.889Zm-1,51.961-7.28,4.327L7.4,61.1,5.754,58.33,13.034,54a6.457,6.457,0,0,1,8.841,2.248l1.031,1.735a6.458,6.458,0,0,1-2.248,8.842Zm8.76-59.662c2.763-3.4,7.458-4.561,10.91-4.931a33.728,33.728,0,0,1,3.6-.191,34.523,34.523,0,0,1,8.6,1.088A16.9,16.9,0,0,0,47.561,11.1c-.267.95-.45,1.922-.626,2.861-.13.694-.254,1.349-.409,2a10.953,10.953,0,0,1-.967,2.7,8.967,8.967,0,0,1-8.106,4.63c-.059,0-.119,0-.178,0a10.684,10.684,0,0,1-6.922-2.659c.058-.15.116-.3.177-.452,2.845-7.074,7.563-11.363,14.024-12.747a1.022,1.022,0,1,0-.411-2l-.018,0c-6.908,1.48-12.181,6.136-15.282,13.478a8.824,8.824,0,0,1-.613-1.043A10.252,10.252,0,0,1,29.417,7.165ZM11.524,16.526a1.022,1.022,0,1,0-.965,1.8,56.849,56.849,0,0,1,10.5,7.027,7.714,7.714,0,0,1-5.525,3.207,6.555,6.555,0,0,1-6.324-2.809,8.053,8.053,0,0,1-.886-1.912c-.159-.474-.3-.956-.441-1.466-.2-.7-.4-1.425-.675-2.133a13.034,13.034,0,0,0-4-5.493,25.752,25.752,0,0,1,8.6-1.347c2.579.042,6.127.577,8.383,2.892a7.522,7.522,0,0,1,1.764,7.151A60.084,60.084,0,0,0,11.524,16.526Z" transform="translate(73.577) rotate(90)" fill="#b08c3e"/>
</svg>
