<svg xmlns="http://www.w3.org/2000/svg" width="68.909" height="62.208" viewBox="0 0 68.909 62.208">
  <g id="Group_6225" data-name="Group 6225" transform="translate(-10.747 0.41)">
    <g id="Group_6009" data-name="Group 6009" transform="translate(11.001)">
      <g id="Group_6008" data-name="Group 6008">
        <g id="Group_6003" data-name="Group 6003" transform="translate(4.311 0.426)">
          <path id="Path_20408" data-name="Path 20408" d="M558.587,136.507a29.788,29.788,0,0,1,.565-58.979" transform="translate(-533.276 -77.494)" fill="none" stroke="#b08c3e" stroke-linecap="round" stroke-linejoin="round" stroke-width="1.5"/>
          <path id="Path_20409" data-name="Path 20409" d="M601.146,77.459a29.787,29.787,0,0,1,.25,59.1" transform="translate(-567.72 -77.459)" fill="none" stroke="#b08c3e" stroke-linecap="round" stroke-linejoin="round" stroke-width="1.5"/>
        </g>
        <g id="Group_6005" data-name="Group 6005">
          <path id="Path_20410" data-name="Path 20410" d="M528.759,132.029a6.044,6.044,0,0,1-3.586-3.427,9.368,9.368,0,0,1-.526-5.024,5.4,5.4,0,0,1,3.137,3.53,37.927,37.927,0,0,1,.979,4.792" transform="translate(-524.524 -100.438)" fill="none" stroke="#b08c3e" stroke-linecap="round" stroke-linejoin="round" stroke-width="0.5"/>
          <path id="Path_20411" data-name="Path 20411" d="M530.069,134.46a15.155,15.155,0,0,1-2.648-5.083" transform="translate(-525.994 -103.381)" fill="none" stroke="#b08c3e" stroke-linecap="round" stroke-linejoin="round" stroke-width="0.5"/>
          <path id="Path_20412" data-name="Path 20412" d="M531.3,126.551a38.847,38.847,0,0,0-1.723-7.583" transform="translate(-527.091 -98.098)" fill="none" stroke="#b08c3e" stroke-linecap="round" stroke-linejoin="round" stroke-width="0.5"/>
          <path id="Path_20413" data-name="Path 20413" d="M529.208,118.989l-.1.1" transform="translate(-526.849 -98.109)" fill="none" stroke="#b08c3e" stroke-linecap="round" stroke-linejoin="round" stroke-width="0.5"/>
          <g id="Group_6004" data-name="Group 6004" transform="translate(0.254)">
            <path id="Path_20414" data-name="Path 20414" d="M531.705,157.507a4.375,4.375,0,0,1-3.289-.636A8.781,8.781,0,0,1,526,154.454a3.96,3.96,0,0,1-.953-2.486c1.482.156,3.088.367,4.146,1.418a6.609,6.609,0,0,1,1.073,1.585l1.422,2.615" transform="translate(-525.04 -114.846)" fill="none" stroke="#b08c3e" stroke-linecap="round" stroke-linejoin="round" stroke-width="0.75"/>
            <path id="Path_20415" data-name="Path 20415" d="M528.636,155.182l2.412,1.875a14.163,14.163,0,0,1,2.345,2.123" transform="translate(-526.865 -116.477)" fill="none" stroke="#b08c3e" stroke-linecap="round" stroke-linejoin="round" stroke-width="0.75"/>
            <path id="Path_20416" data-name="Path 20416" d="M536.554,148.351a12.5,12.5,0,0,1,.434-4.473,5.93,5.93,0,0,1,2.716-3.472,2.006,2.006,0,0,1,.811-.263,6.744,6.744,0,0,1,.008,5.041,5.607,5.607,0,0,1-3.758,3.271" transform="translate(-530.868 -108.845)" fill="none" stroke="#b08c3e" stroke-linecap="round" stroke-linejoin="round" stroke-width="0.75"/>
            <path id="Path_20417" data-name="Path 20417" d="M536.478,152.2a2.7,2.7,0,0,1,.411-1.16l2.362-4.376" transform="translate(-530.845 -112.156)" fill="none" stroke="#b08c3e" stroke-linecap="round" stroke-linejoin="round" stroke-width="0.75"/>
            <path id="Path_20418" data-name="Path 20418" d="M533.329,127.175a9.985,9.985,0,0,1,1.623-3.825,5.625,5.625,0,0,1,3.413-2.251,6.288,6.288,0,0,1-1.633,5.2,4.7,4.7,0,0,1-3.626,1.567" transform="translate(-529.133 -99.18)" fill="none" stroke="#b08c3e" stroke-linecap="round" stroke-linejoin="round" stroke-width="0.75"/>
            <path id="Path_20419" data-name="Path 20419" d="M533,130.267a23.275,23.275,0,0,0,3.876-4.184" transform="translate(-529.078 -101.709)" fill="none" stroke="#b08c3e" stroke-linecap="round" stroke-linejoin="round" stroke-width="0.75"/>
            <path id="Path_20420" data-name="Path 20420" d="M536.068,103.446a3.279,3.279,0,0,1-2.271-2.065,6.8,6.8,0,0,1-.308-4.705c.04-.132.1-.281.236-.314a.4.4,0,0,1,.268.063,5.208,5.208,0,0,1,2.143,7.2" transform="translate(-529.185 -86.623)" fill="none" stroke="#b08c3e" stroke-linecap="round" stroke-linejoin="round" stroke-width="0.75"/>
            <path id="Path_20421" data-name="Path 20421" d="M537.67,105a22.811,22.811,0,0,1-1.544-5.259" transform="translate(-530.666 -88.34)" fill="none" stroke="#b08c3e" stroke-linecap="round" stroke-linejoin="round" stroke-width="0.75"/>
            <path id="Path_20422" data-name="Path 20422" d="M542.914,101.583a8.65,8.65,0,0,1,7.768-2.461,2.137,2.137,0,0,1-.637,1.381,10.2,10.2,0,0,1-2.069,2.062,3.9,3.9,0,0,1-2.764.734,2.441,2.441,0,0,1-2.035-1.847" transform="translate(-534.111 -87.95)" fill="none" stroke="#b08c3e" stroke-linecap="round" stroke-linejoin="round" stroke-width="0.75"/>
            <path id="Path_20423" data-name="Path 20423" d="M543.24,102.766a7.93,7.93,0,0,0,4.984-1.148" transform="translate(-534.276 -89.293)" fill="none" stroke="#b08c3e" stroke-linecap="round" stroke-linejoin="round" stroke-width="0.75"/>
            <path id="Path_20424" data-name="Path 20424" d="M555.288,83.477a4.564,4.564,0,0,1,.194-4.129,6.5,6.5,0,0,1,3.192-2.755,3.388,3.388,0,0,1-.062,2.592,8.689,8.689,0,0,1-1.442,2.226q-.818,1-1.694,1.94" transform="translate(-540.185 -76.594)" fill="none" stroke="#b08c3e" stroke-linecap="round" stroke-linejoin="round" stroke-width="0.75"/>
            <path id="Path_20425" data-name="Path 20425" d="M555.894,86.372a5.94,5.94,0,0,1,1.438-4.071" transform="translate(-540.696 -79.49)" fill="none" stroke="#b08c3e" stroke-linecap="round" stroke-linejoin="round" stroke-width="0.75"/>
            <path id="Path_20426" data-name="Path 20426" d="M558.2,87.2a14.89,14.89,0,0,0,4.677.7,6.512,6.512,0,0,0,4.311-1.722,11.382,11.382,0,0,0-5.139-.72,5.153,5.153,0,0,0-2.633.86" transform="translate(-541.866 -81.068)" fill="none" stroke="#b08c3e" stroke-linecap="round" stroke-linejoin="round" stroke-width="0.75"/>
            <path id="Path_20427" data-name="Path 20427" d="M558.973,88.1a26.8,26.8,0,0,1,6.065-.091" transform="translate(-542.261 -82.322)" fill="none" stroke="#b08c3e" stroke-linecap="round" stroke-linejoin="round" stroke-width="0.75"/>
            <path id="Path_20428" data-name="Path 20428" d="M543.184,180.723a17.662,17.662,0,0,0-4.3-1.637,5.956,5.956,0,0,0-4.44.712,6.415,6.415,0,0,1-1.226.794,7.652,7.652,0,0,0,4.949,2.952,5.633,5.633,0,0,0,5.212-2.135" transform="translate(-529.191 -128.538)" fill="none" stroke="#b08c3e" stroke-linecap="round" stroke-linejoin="round" stroke-width="0.75"/>
            <path id="Path_20429" data-name="Path 20429" d="M545.526,183.039c-2.594-.592-5.43.291-7.91-.672" transform="translate(-531.422 -130.273)" fill="none" stroke="#b08c3e" stroke-linecap="round" stroke-linejoin="round" stroke-width="0.75"/>
            <path id="Path_20430" data-name="Path 20430" d="M553.083,174.872a21.14,21.14,0,0,1-.985-6.993" transform="translate(-538.767 -122.92)" fill="none" stroke="#b08c3e" stroke-linecap="round" stroke-linejoin="round" stroke-width="0.75"/>
            <path id="Path_20431" data-name="Path 20431" d="M565.042,194.656a9.741,9.741,0,0,0-4.9.285,4.887,4.887,0,0,0-2.5,2.416,5.157,5.157,0,0,1,2.014.37,4.819,4.819,0,0,0,3.42-.558,7.216,7.216,0,0,0,2.494-2.47" transform="translate(-541.586 -136.423)" fill="none" stroke="#b08c3e" stroke-linecap="round" stroke-linejoin="round" stroke-width="0.75"/>
            <path id="Path_20432" data-name="Path 20432" d="M568.012,194.521a2.8,2.8,0,0,0-1.418.225l-3.731,1.282" transform="translate(-544.235 -136.427)" fill="none" stroke="#b08c3e" stroke-linecap="round" stroke-linejoin="round" stroke-width="0.75"/>
            <path id="Path_20433" data-name="Path 20433" d="M570.462,185.06a7.03,7.03,0,0,1-1.862-1.721,5.856,5.856,0,0,1-.385-4.558,4.625,4.625,0,0,1,.937-2.073c.447.9,1.149,1.65,1.649,2.522a6.539,6.539,0,0,1,.01,6.359" transform="translate(-546.812 -127.401)" fill="none" stroke="#b08c3e" stroke-linecap="round" stroke-linejoin="round" stroke-width="0.75"/>
            <path id="Path_20434" data-name="Path 20434" d="M572.395,189.491c-.208-1.092-.98-2.01-1.208-3.1a6.53,6.53,0,0,1-.079-1.511" transform="translate(-548.414 -131.55)" fill="none" stroke="#b08c3e" stroke-linecap="round" stroke-linejoin="round" stroke-width="0.75"/>
            <path id="Path_20435" data-name="Path 20435" d="M550.5,172.1a13.51,13.51,0,0,1-1.349-2.98,4.554,4.554,0,0,1,.192-3.2c.365-.728,1.007-1.369,1.037-2.183a15.915,15.915,0,0,0,1.909,3.169,7.9,7.9,0,0,1,1.044,2.918,3.9,3.9,0,0,1-.158,2.044,1.962,1.962,0,0,1-1.527,1.251" transform="translate(-537.177 -120.82)" fill="none" stroke="#b08c3e" stroke-linecap="round" stroke-linejoin="round" stroke-width="0.75"/>
            <path id="Path_20436" data-name="Path 20436" d="M559.372,82.1c1.995-1.2,4.064-2.472,5.292-4.45" transform="translate(-542.463 -77.131)" fill="none" stroke="#b08c3e" stroke-linecap="round" stroke-linejoin="round" stroke-width="0.75"/>
            <path id="Path_20437" data-name="Path 20437" d="M570.047,77.631h.2" transform="translate(-547.881 -77.12)" fill="none" stroke="#b08c3e" stroke-linecap="round" stroke-linejoin="round" stroke-width="0.75"/>
            <path id="Path_20438" data-name="Path 20438" d="M572.1,80.537c1.778-.371,3.727-.721,5.333.129" transform="translate(-548.92 -78.394)" fill="none" stroke="#b08c3e" stroke-linecap="round" stroke-linejoin="round" stroke-width="0.75"/>
            <path id="Path_20439" data-name="Path 20439" d="M547.93,172a10.207,10.207,0,0,1-2.4-7.5" transform="translate(-535.416 -121.209)" fill="none" stroke="#b08c3e" stroke-linecap="round" stroke-linejoin="round" stroke-width="0.75"/>
            <path id="Path_20440" data-name="Path 20440" d="M545.834,164.087h-.1" transform="translate(-535.541 -120.996)" fill="none" stroke="#b08c3e" stroke-linecap="round" stroke-linejoin="round" stroke-width="0.75"/>
          </g>
        </g>
        <g id="Group_6007" data-name="Group 6007" transform="translate(42.704)">
          <path id="Path_20441" data-name="Path 20441" d="M654.551,132.029a6.043,6.043,0,0,0,3.586-3.427,9.368,9.368,0,0,0,.526-5.024,5.4,5.4,0,0,0-3.137,3.53,37.905,37.905,0,0,0-.979,4.792" transform="translate(-633.214 -100.438)" fill="none" stroke="#b08c3e" stroke-linecap="round" stroke-linejoin="round" stroke-width="0.75"/>
          <path id="Path_20442" data-name="Path 20442" d="M654.88,134.46a15.156,15.156,0,0,0,2.648-5.083" transform="translate(-633.383 -103.381)" fill="none" stroke="#b08c3e" stroke-linecap="round" stroke-linejoin="round" stroke-width="0.5"/>
          <path id="Path_20443" data-name="Path 20443" d="M654.6,126.551a38.852,38.852,0,0,1,1.723-7.583" transform="translate(-633.239 -98.098)" fill="none" stroke="#b08c3e" stroke-linecap="round" stroke-linejoin="round" stroke-width="0.5"/>
          <path id="Path_20444" data-name="Path 20444" d="M658.364,118.989l.1.1" transform="translate(-635.151 -98.109)" fill="none" stroke="#b08c3e" stroke-linecap="round" stroke-linejoin="round" stroke-width="0.5"/>
          <g id="Group_6006" data-name="Group 6006">
            <path id="Path_20445" data-name="Path 20445" d="M649.1,157.507a4.376,4.376,0,0,0,3.29-.636,8.774,8.774,0,0,0,2.417-2.417,3.958,3.958,0,0,0,.953-2.486c-1.482.156-3.088.367-4.146,1.418a6.6,6.6,0,0,0-1.073,1.585l-1.422,2.615" transform="translate(-630.451 -114.846)" fill="none" stroke="#b08c3e" stroke-linecap="round" stroke-linejoin="round" stroke-width="0.75"/>
            <path id="Path_20446" data-name="Path 20446" d="M654.14,155.182l-2.412,1.875a14.156,14.156,0,0,0-2.345,2.123" transform="translate(-630.593 -116.477)" fill="none" stroke="#b08c3e" stroke-linecap="round" stroke-linejoin="round" stroke-width="0.75"/>
            <path id="Path_20447" data-name="Path 20447" d="M646.5,148.351a12.477,12.477,0,0,0-.434-4.473,5.927,5.927,0,0,0-2.716-3.472,2.009,2.009,0,0,0-.811-.263,6.744,6.744,0,0,0-.008,5.041,5.608,5.608,0,0,0,3.758,3.271" transform="translate(-626.871 -108.845)" fill="none" stroke="#b08c3e" stroke-linecap="round" stroke-linejoin="round" stroke-width="0.75"/>
            <path id="Path_20448" data-name="Path 20448" d="M648.343,152.2a2.693,2.693,0,0,0-.411-1.16l-2.361-4.376" transform="translate(-628.658 -112.156)" fill="none" stroke="#b08c3e" stroke-linecap="round" stroke-linejoin="round" stroke-width="0.75"/>
            <path id="Path_20449" data-name="Path 20449" d="M648.86,127.175a9.984,9.984,0,0,0-1.623-3.825,5.626,5.626,0,0,0-3.413-2.251,6.288,6.288,0,0,0,1.632,5.2,4.705,4.705,0,0,0,3.627,1.567" transform="translate(-627.737 -99.18)" fill="none" stroke="#b08c3e" stroke-linecap="round" stroke-linejoin="round" stroke-width="0.75"/>
            <path id="Path_20450" data-name="Path 20450" d="M650.687,130.267a23.286,23.286,0,0,1-3.875-4.184" transform="translate(-629.288 -101.709)" fill="none" stroke="#b08c3e" stroke-linecap="round" stroke-linejoin="round" stroke-width="0.75"/>
            <path id="Path_20451" data-name="Path 20451" d="M647.9,103.446a3.279,3.279,0,0,0,2.271-2.065,6.8,6.8,0,0,0,.308-4.705c-.04-.132-.1-.281-.237-.314a.4.4,0,0,0-.268.063,5.209,5.209,0,0,0-2.143,7.2" transform="translate(-629.463 -86.623)" fill="none" stroke="#b08c3e" stroke-linecap="round" stroke-linejoin="round" stroke-width="0.75"/>
            <path id="Path_20452" data-name="Path 20452" d="M648.417,105a22.811,22.811,0,0,0,1.544-5.259" transform="translate(-630.103 -88.34)" fill="none" stroke="#b08c3e" stroke-linecap="round" stroke-linejoin="round" stroke-width="0.75"/>
            <path id="Path_20453" data-name="Path 20453" d="M636.757,101.583a8.65,8.65,0,0,0-7.768-2.461,2.14,2.14,0,0,0,.638,1.381,10.194,10.194,0,0,0,2.069,2.062,3.9,3.9,0,0,0,2.764.734,2.441,2.441,0,0,0,2.035-1.847" transform="translate(-620.242 -87.95)" fill="none" stroke="#b08c3e" stroke-linecap="round" stroke-linejoin="round" stroke-width="0.75"/>
            <path id="Path_20454" data-name="Path 20454" d="M639.3,102.766a7.929,7.929,0,0,1-4.983-1.148" transform="translate(-622.948 -89.293)" fill="none" stroke="#b08c3e" stroke-linecap="round" stroke-linejoin="round" stroke-width="0.75"/>
            <path id="Path_20455" data-name="Path 20455" d="M628.245,83.477a4.564,4.564,0,0,0-.194-4.129,6.5,6.5,0,0,0-3.192-2.755,3.388,3.388,0,0,0,.062,2.592,8.673,8.673,0,0,0,1.442,2.226q.818,1,1.694,1.94" transform="translate(-618.03 -76.594)" fill="none" stroke="#b08c3e" stroke-linecap="round" stroke-linejoin="round" stroke-width="0.75"/>
            <path id="Path_20456" data-name="Path 20456" d="M630.3,86.372A5.939,5.939,0,0,0,628.86,82.3" transform="translate(-620.178 -79.49)" fill="none" stroke="#b08c3e" stroke-linecap="round" stroke-linejoin="round" stroke-width="0.75"/>
            <path id="Path_20457" data-name="Path 20457" d="M620.22,87.2a14.89,14.89,0,0,1-4.677.7,6.512,6.512,0,0,1-4.312-1.722,11.383,11.383,0,0,1,5.139-.72,5.154,5.154,0,0,1,2.633.86" transform="translate(-611.231 -81.068)" fill="none" stroke="#b08c3e" stroke-linecap="round" stroke-linejoin="round" stroke-width="0.75"/>
            <path id="Path_20458" data-name="Path 20458" d="M622.455,88.1a26.8,26.8,0,0,0-6.065-.091" transform="translate(-613.849 -82.322)" fill="none" stroke="#b08c3e" stroke-linecap="round" stroke-linejoin="round" stroke-width="0.75"/>
            <path id="Path_20459" data-name="Path 20459" d="M634.023,180.723a17.666,17.666,0,0,1,4.3-1.637,5.955,5.955,0,0,1,4.44.712,6.415,6.415,0,0,0,1.226.794,7.654,7.654,0,0,1-4.949,2.952,5.634,5.634,0,0,1-5.212-2.135" transform="translate(-622.699 -128.538)" fill="none" stroke="#b08c3e" stroke-linecap="round" stroke-linejoin="round" stroke-width="0.75"/>
            <path id="Path_20460" data-name="Path 20460" d="M634,183.039c2.594-.592,5.43.291,7.91-.672" transform="translate(-622.787 -130.273)" fill="none" stroke="#b08c3e" stroke-linecap="round" stroke-linejoin="round" stroke-width="0.75"/>
            <path id="Path_20461" data-name="Path 20461" d="M633.572,174.872a21.144,21.144,0,0,0,.984-6.993" transform="translate(-622.569 -122.92)" fill="none" stroke="#b08c3e" stroke-linecap="round" stroke-linejoin="round" stroke-width="0.75"/>
            <path id="Path_20462" data-name="Path 20462" d="M614.466,194.656a9.739,9.739,0,0,1,4.9.285,4.884,4.884,0,0,1,2.5,2.416,5.157,5.157,0,0,0-2.014.37,4.818,4.818,0,0,1-3.42-.558,7.217,7.217,0,0,1-2.495-2.47" transform="translate(-612.603 -136.423)" fill="none" stroke="#b08c3e" stroke-linecap="round" stroke-linejoin="round" stroke-width="0.75"/>
            <path id="Path_20463" data-name="Path 20463" d="M614.36,194.521a2.8,2.8,0,0,1,1.418.225l3.731,1.282" transform="translate(-612.819 -136.427)" fill="none" stroke="#b08c3e" stroke-linecap="round" stroke-linejoin="round" stroke-width="0.75"/>
            <path id="Path_20464" data-name="Path 20464" d="M613.415,185.06a7.027,7.027,0,0,0,1.861-1.721,5.854,5.854,0,0,0,.386-4.558,4.626,4.626,0,0,0-.937-2.073c-.447.9-1.149,1.65-1.649,2.522a6.54,6.54,0,0,0-.01,6.359" transform="translate(-611.746 -127.401)" fill="none" stroke="#b08c3e" stroke-linecap="round" stroke-linejoin="round" stroke-width="0.75"/>
            <path id="Path_20465" data-name="Path 20465" d="M613.948,189.491c.208-1.092.98-2.01,1.209-3.1a6.537,6.537,0,0,0,.079-1.511" transform="translate(-612.61 -131.55)" fill="none" stroke="#b08c3e" stroke-linecap="round" stroke-linejoin="round" stroke-width="0.75"/>
            <path id="Path_20466" data-name="Path 20466" d="M632.6,172.1a13.527,13.527,0,0,0,1.348-2.98,4.554,4.554,0,0,0-.192-3.2c-.365-.728-1.007-1.369-1.037-2.183a15.9,15.9,0,0,1-1.909,3.169,7.9,7.9,0,0,0-1.044,2.918,3.9,3.9,0,0,0,.157,2.044,1.963,1.963,0,0,0,1.528,1.251" transform="translate(-620.603 -120.82)" fill="none" stroke="#b08c3e" stroke-linecap="round" stroke-linejoin="round" stroke-width="0.75"/>
            <path id="Path_20467" data-name="Path 20467" d="M622.853,82.1c-1.995-1.2-4.064-2.472-5.292-4.45" transform="translate(-614.443 -77.131)" fill="none" stroke="#b08c3e" stroke-linecap="round" stroke-linejoin="round" stroke-width="0.75"/>
            <path id="Path_20468" data-name="Path 20468" d="M617.419,77.631h-.2" transform="translate(-614.268 -77.12)" fill="none" stroke="#b08c3e" stroke-linecap="round" stroke-linejoin="round" stroke-width="0.75"/>
            <path id="Path_20469" data-name="Path 20469" d="M637.231,172a10.209,10.209,0,0,0,2.4-7.5" transform="translate(-624.426 -121.209)" fill="none" stroke="#b08c3e" stroke-linecap="round" stroke-linejoin="round" stroke-width="0.75"/>
            <path id="Path_20470" data-name="Path 20470" d="M641.738,164.087h.1" transform="translate(-626.713 -120.996)" fill="none" stroke="#b08c3e" stroke-linecap="round" stroke-linejoin="round" stroke-width="0.75"/>
          </g>
          <path id="Path_20471" data-name="Path 20471" d="M614.46,189.99c-.062.165.232.2.387.112a8.421,8.421,0,0,0,3.869-4.366" transform="translate(-612.866 -131.983)" fill="none" stroke="#b08c3e" stroke-linecap="round" stroke-linejoin="round" stroke-width="0.5"/>
        </g>
      </g>
    </g>
  </g>
</svg>
