<svg xmlns="http://www.w3.org/2000/svg" width="67.284" height="83.905" viewBox="0 0 67.284 83.905">
  <g id="Search_results_for_Quality_-_Flaticon-2_1_" data-name="Search results for Quality - Flaticon-2 (1)" transform="translate(-50.713 0)">
    <g id="Group_6072" data-name="Group 6072" transform="translate(50.713 0)">
      <path id="Path_20506" data-name="Path 20506" d="M111.342,82.963a1.229,1.229,0,0,0-2.456.087,24.116,24.116,0,0,0,.634,4.69,23.835,23.835,0,0,0,8.615,13.442,24.113,24.113,0,0,0,38.34-24.527,23.841,23.841,0,0,0-8.617-13.442,24.034,24.034,0,0,0-20.4-4.493,24.232,24.232,0,0,0-18.1,18.685,1.229,1.229,0,1,0,2.408.492A21.644,21.644,0,0,1,146.346,65.15a21.407,21.407,0,0,1,7.737,12.069,21.65,21.65,0,0,1-34.436,22.025,21.4,21.4,0,0,1-7.736-12.07,21.684,21.684,0,0,1-.569-4.211Z" transform="translate(-99.353 -48.555)" fill="#b08c3e"/>
      <path id="Path_20507" data-name="Path 20507" d="M169.232,92.229a19.024,19.024,0,0,0-28.825,20.342,18.782,18.782,0,0,0,6.791,10.6,18.93,18.93,0,0,0,16.1,3.55,19.025,19.025,0,0,0,10.243-30.7,1.229,1.229,0,0,0-1.882,1.581,16.549,16.549,0,0,1,1.356,19.309,16.582,16.582,0,0,1-14.089,7.866,16.689,16.689,0,0,1-10.211-3.543,16.572,16.572,0,0,1,6.407-29.155A16.45,16.45,0,0,1,167.9,94.294a1.229,1.229,0,1,0,1.333-2.065Z" transform="translate(-125.28 -74.558)" fill="#b08c3e"/>
      <path id="Path_20508" data-name="Path 20508" d="M115.706,33.674l2.25-8.362a1.229,1.229,0,0,0-.317-1.187l-6.117-6.13-2.232-8.367a1.229,1.229,0,0,0-.868-.87l-8.362-2.249L93.942.379A1.23,1.23,0,0,0,92.755.059L84.388,2.291,76.026.042a1.229,1.229,0,0,0-1.187.317l-6.13,6.117L60.342,8.708a1.229,1.229,0,0,0-.87.868l-2.25,8.362-6.13,6.117a1.229,1.229,0,0,0-.319,1.187l2.232,8.367-2.25,8.362a1.229,1.229,0,0,0,.317,1.187l6.117,6.13,2.232,8.367a1.229,1.229,0,0,0,.868.87l3.256.876-9.43,16.338c-.54,1.336.142,2.019,1.383,1.8l7.37-1.976,1.976,7.372a1.2,1.2,0,0,0,2.251.3L76.409,67.1l5.617-1.5a1.229,1.229,0,0,0-.634-2.375l-5.384,1.438-5.849-5.861a1.229,1.229,0,0,0-.551-.319l-7.995-2.151-2.134-8a1.229,1.229,0,0,0-.318-.551l-5.849-5.861,2.151-7.995a1.23,1.23,0,0,0,0-.636l-2.134-8,5.861-5.849a1.229,1.229,0,0,0,.319-.551L61.661,10.9l8-2.134a1.229,1.229,0,0,0,.551-.318L76.073,2.6l7.995,2.151a1.231,1.231,0,0,0,.636,0l8-2.134,5.849,5.861A1.229,1.229,0,0,0,99.1,8.8l7.995,2.151,2.134,8a1.229,1.229,0,0,0,.318.551l5.849,5.861-2.151,7.995a1.229,1.229,0,0,0,0,.636l2.134,8-5.861,5.849a1.229,1.229,0,0,0-.319.551l-2.151,7.995-8,2.134a1.229,1.229,0,0,0-.551.318l-5.861,5.848-5.253-1.415a1.229,1.229,0,1,0-.639,2.373l5.679,1.53L101.7,83.232a1.2,1.2,0,0,0,2.252-.3l1.974-7.371,7.37,1.976c1.322.3,1.923-.547,1.383-1.8l-9.428-16.331,3.121-.833a1.229,1.229,0,0,0,.87-.868l2.25-8.362,6.13-6.117a1.229,1.229,0,0,0,.319-1.187ZM69.5,61.624l-3.693,6.4a1.23,1.23,0,1,0,2.129,1.229L71.3,63.425l2.786,2.791L66.451,79.435l-1.526-5.693a1.229,1.229,0,0,0-1.505-.869L57.728,74.4,66,60.062l2.649.713ZM111.064,74.4l-5.691-1.526a1.229,1.229,0,0,0-1.505.869l-1.525,5.692-7.679-13.3,2.788-2.783,3.4,5.9c1.032,1.628,3.031.333,2.129-1.229l-3.733-6.465.748-.747,2.787-.743Z" transform="translate(-50.713 0)" fill="#b08c3e"/>
      <path id="Path_20509" data-name="Path 20509" d="M212.6,148.393a2.143,2.143,0,0,0-1.74-1.467l-4.682-.68L204.085,142a2.156,2.156,0,0,0-3.866,0l-2.094,4.243-4.682.68a2.156,2.156,0,0,0-1.195,3.677l3.388,3.3-.8,4.663a2.156,2.156,0,0,0,3.128,2.272l4.188-2.2,4.188,2.2a2.156,2.156,0,0,0,3.128-2.272l-.8-4.663,3.388-3.3A2.143,2.143,0,0,0,212.6,148.393Zm-6.112,4.2a1.229,1.229,0,0,0-.353,1.088l.806,4.7-4.217-2.217a1.23,1.23,0,0,0-1.144,0l-4.217,2.217.806-4.7a1.229,1.229,0,0,0-.353-1.088L194.4,149.27l4.715-.685a1.229,1.229,0,0,0,.925-.672l2.109-4.273,2.109,4.273a1.229,1.229,0,0,0,.925.672l4.715.685Z" transform="translate(-168.51 -117.728)" fill="#b08c3e"/>
    </g>
  </g>
</svg>
