<svg xmlns="http://www.w3.org/2000/svg" width="157.37" height="30.43" viewBox="0 0 157.37 30.43">
  <g id="Group_6020" data-name="Group 6020" transform="translate(0.75)">
    <line id="Line_11" data-name="Line 11" x2="155.87" transform="translate(0 29.68)" fill="none" stroke="#b08c3e" stroke-linecap="round" stroke-linejoin="round" stroke-width="1.5"/>
    <g id="Group_6019" data-name="Group 6019" transform="translate(42.342)">
      <g id="Group_6016" data-name="Group 6016" transform="translate(13.42)">
        <g id="Group_6010" data-name="Group 6010" transform="translate(16.936)">
          <path id="Path_20472" data-name="Path 20472" d="M594.785,337.008a.686.686,0,0,0-.146-.335c-3.033-3.691-4.962-7.935-4.665-12.81.1-1.687,3.446-13.648,5.9-13.94,2.743-.326,4.284,10.437,4.369,12.315.222,4.923-.961,10.877-4.691,14.393a.575.575,0,0,0-.187.385c.53,0,1.059,0,1.593.022,7.373-7.766,4.578-21.3-.719-29.329a.532.532,0,0,0-.9,0c-5.5,9.413-10.81,20.16-2.162,29.354C593.706,337.037,594.242,337.011,594.785,337.008Z" transform="translate(-588.602 -307.457)" fill="#b08c3e"/>
        </g>
        <g id="Group_6011" data-name="Group 6011" transform="translate(25.281 4.249)">
          <path id="Path_20473" data-name="Path 20473" d="M619.689,311.726c-8.436-.37-16.533,4.711-19.168,12.763-.213.652.82,1.1,1.13.472a21.341,21.341,0,0,1,8.959-9.85,19.938,19.938,0,0,1,5.064-1.887c4.214-.927,2.908,1.056,1.916,3.836-3.412,9.564-9.645,16.759-19.908,19.191a.914.914,0,0,0-.735.789c1.424.052,2.858.163,4.286.291,11-4.107,16.023-13.694,18.982-24.922A.549.549,0,0,0,619.689,311.726Z" transform="translate(-596.947 -311.707)" fill="#b08c3e"/>
        </g>
        <g id="Group_6012" data-name="Group 6012" transform="translate(0 4.86)">
          <path id="Path_20474" data-name="Path 20474" d="M589.729,337.646a28.4,28.4,0,0,1,3.068-.319.259.259,0,0,0,0-.028l-.066-.358a.324.324,0,0,0-.4-.224c-1.67.533-6.213-3.137-7.6-4.033a31.894,31.894,0,0,1-5.9-4.631c-3.732-3.907-3.707-8.544-4.883-13.348,5.589.874,10.834,2.219,14.795,6.665.859.965,2.148-.42,1.389-1.389-4.247-5.42-11.034-6.618-17.5-7.411a.973.973,0,0,0-.932,1.224c2.059,6.729,1.614,12.1,7.315,17.03a47.835,47.835,0,0,0,7.377,5c.983.571,2.054,1.4,3.181,1.92A.317.317,0,0,1,589.729,337.646Z" transform="translate(-571.666 -312.565)" fill="#b08c3e"/>
        </g>
        <g id="Group_6013" data-name="Group 6013" transform="translate(7.29 13.237)">
          <path id="Path_20475" data-name="Path 20475" d="M579.01,321.268a65.386,65.386,0,0,0,10.079,10.3c.6.528,1.488-.341.887-.886-3.535-3.2-6.845-6.725-10.527-9.75-.224-.184-.64.061-.439.339Z" transform="translate(-578.957 -320.865)" fill="#b08c3e"/>
        </g>
        <g id="Group_6014" data-name="Group 6014" transform="translate(28.116 15.332)">
          <path id="Path_20476" data-name="Path 20476" d="M600,332.085c2.089-.43,3.875-2,5.468-3.344a17.241,17.241,0,0,0,4.659-5.193c.146-.3-.18-.748-.51-.51a61.129,61.129,0,0,0-4.631,4.3c-1.671,1.489-3.785,2.677-5.159,4.453a.179.179,0,0,0,.173.3Z" transform="translate(-599.782 -322.971)" fill="#b08c3e"/>
        </g>
        <g id="Group_6015" data-name="Group 6015" transform="translate(23.335 10.079)">
          <path id="Path_20477" data-name="Path 20477" d="M595.307,317.959a42.363,42.363,0,0,0-.212,8.2c.114,3.468-.2,6.953-.042,10.4a.476.476,0,0,0,.931.126c.821-3.162.565-6.588.5-9.832a44.331,44.331,0,0,0-.707-8.893c-.051-.226-.434-.242-.473,0Z" transform="translate(-595.001 -317.783)" fill="#b08c3e"/>
        </g>
      </g>
      <g id="Group_6017" data-name="Group 6017" transform="translate(0 20.837)">
        <path id="Path_20478" data-name="Path 20478" d="M579.2,329.516a14.678,14.678,0,0,0-10.258-.1c-4.307,1.332-6.5,4.566-10.267,6.721a.91.91,0,0,0-.272,1.3c.559,0,1.122.05,1.675.1,2.691-1.179,4.389-3.76,6.924-5.3,3.8-2.3,7.655-2.1,11.89-1.592A.614.614,0,0,0,579.2,329.516Z" transform="translate(-558.246 -328.542)" fill="#b08c3e"/>
      </g>
      <g id="Group_6018" data-name="Group 6018" transform="translate(50.93 21.245)">
        <path id="Path_20479" data-name="Path 20479" d="M629.361,337.583a.914.914,0,0,0-.266-1.062c-4.992-4.495-13.014-10.767-19.739-5.671-.345.262-.168.911.32.759,7.169-2.241,12.4,1.555,17.5,6.1C627.907,337.646,628.639,337.615,629.361,337.583Z" transform="translate(-609.177 -328.949)" fill="#b08c3e"/>
      </g>
      <path id="Path_20480" data-name="Path 20480" d="M587.968,336.857a69.006,69.006,0,0,0-15.288-1.622" transform="translate(-558.246 -307.704)" fill="none" stroke="#b08c3e" stroke-width="0.5"/>
      <path id="Path_20481" data-name="Path 20481" d="M601.03,337.257l16.528-2.266" transform="translate(-558.246 -307.704)" fill="none" stroke="#b08c3e" stroke-width="0.5"/>
    </g>
  </g>
</svg>
