<svg xmlns="http://www.w3.org/2000/svg" width="67.843" height="71.956" viewBox="0 0 67.843 71.956">
  <g id="Group_6227" data-name="Group 6227" transform="translate(-151)">
    <g id="Component_29_1" data-name="Component 29 – 1" transform="translate(151)">
      <g id="Group_6384" data-name="Group 6384" transform="translate(-151)">
        <g id="Group_6033" data-name="Group 6033" transform="translate(151)">
          <g id="Group_6021" data-name="Group 6021" transform="translate(0.581 2.683)">
            <path id="Path_20482" data-name="Path 20482" d="M323.44,297.972v23.309l29.621,17.1,29.621-17.1v-34.2l-29.621-17.1" transform="translate(-319.711 -269.976)" fill="none" stroke="#b08c3e" stroke-linecap="round" stroke-width="1.5"/>
            <path id="Path_20483" data-name="Path 20483" d="M320.909,299.906l-4.024,13.023,23.252,25.085,33.35-7.595,10.1-32.679-23.252-25.085-5.44,1.239" transform="translate(-316.885 -271.131)" fill="none" stroke="#b08c3e" stroke-width="1"/>
          </g>
          <g id="Group_6032" data-name="Group 6032">
            <g id="Group_6023" data-name="Group 6023">
              <g id="Group_6022" data-name="Group 6022" transform="translate(4.113 5.683)">
                <path id="Path_20484" data-name="Path 20484" d="M323.257,309.8q-.05-.928-.044-1.865a34.944,34.944,0,0,1,6.069-19.278c4.411-6.364,10.575-10.035,17.59-12.953a.23.23,0,0,0-.122-.444c-15.777,3.3-24.7,19.418-23.558,34.54,0,.042.068.043.065,0Z" transform="translate(-323.094 -275.249)" fill="#b08c3e"/>
              </g>
              <path id="Path_20485" data-name="Path 20485" d="M320.338,312.426a4.648,4.648,0,0,0-1.092-2.878c-2.537-3.929-4.191-8.776-2.971-13.292a8.257,8.257,0,0,1,3.654,4.8,20.349,20.349,0,0,1,.858,7.654C320.742,309.747,320.338,312.426,320.338,312.426Z" transform="translate(-315.864 -278.623)" fill="#b08c3e"/>
              <path id="Path_20486" data-name="Path 20486" d="M323.537,314.328a12.625,12.625,0,0,1,5.631-6.542,19.991,19.991,0,0,1,4.972-1.59,10.324,10.324,0,0,1,2.492-.343c-1.315,3.519-4.536,6.054-8.032,7.427a20.763,20.763,0,0,0-5.022,2.227" transform="translate(-319.172 -282.76)" fill="#b08c3e"/>
              <path id="Path_20487" data-name="Path 20487" d="M328.1,294.653a1.769,1.769,0,0,0-.023-.851c-.427-2.153-1.183-4.237-1.51-6.408a8.846,8.846,0,0,1,1.076-6.338c1.8,2.4,3.035,5.521,2.188,8.4-.262.893-.712,1.72-1.008,2.6a7.937,7.937,0,0,0-.41,2.335" transform="translate(-320.416 -272.07)" fill="#b08c3e"/>
              <path id="Path_20488" data-name="Path 20488" d="M330.492,297.315a18.351,18.351,0,0,1,2.478-2.978c2.336-2.115,5.559-2.88,8.633-3.57a10.063,10.063,0,0,1-4.554,5.59,15.978,15.978,0,0,1-7.017,2.055" transform="translate(-321.972 -276.257)" fill="#b08c3e"/>
              <path id="Path_20489" data-name="Path 20489" d="M339.144,280.857a2.961,2.961,0,0,0,.294-3.023c-.384-1-1.049-1.857-1.493-2.827a7.047,7.047,0,0,1,.086-5.966,9.342,9.342,0,0,1,2.984,2.914,5.177,5.177,0,0,1,.649,4.037c-.384,1.316-1.386,2.361-1.93,3.62" transform="translate(-325.116 -266.89)" fill="#b08c3e"/>
              <path id="Path_20490" data-name="Path 20490" d="M343.294,285.188a6.325,6.325,0,0,1,3.819-1.025c1.341.007,2.674.231,4.015.244a12.887,12.887,0,0,0,6.349-1.61,4.357,4.357,0,0,1-1.591-.317,12.859,12.859,0,0,0-11.216,1.876" transform="translate(-327.69 -272.447)" fill="#b08c3e"/>
              <path id="Path_20491" data-name="Path 20491" d="M351.745,276.723a16.764,16.764,0,0,1,3.923-4.093c2.4-1.569,5.4-1.8,8.264-1.982a4.929,4.929,0,0,1-2.518,3.133,15.564,15.564,0,0,1-6.882,2.342,9.542,9.542,0,0,0-3.236.56" transform="translate(-331.14 -267.583)" fill="#b08c3e"/>
              <path id="Path_20492" data-name="Path 20492" d="M348.356,275.7c1.253-1.174,1.573-3,2.238-4.584a10.481,10.481,0,0,1,6.438-5.859,4.684,4.684,0,0,1-.843,3.678,13.891,13.891,0,0,1-2.742,2.737l-4.128,3.415" transform="translate(-329.872 -265.26)" fill="#b08c3e"/>
            </g>
            <g id="Group_6031" data-name="Group 6031" transform="translate(0.997 4.721)">
              <g id="Group_6024" data-name="Group 6024" transform="translate(4.301 20.329)">
                <path id="Path_20493" data-name="Path 20493" d="M325.384,315.372a36.164,36.164,0,0,1,4.625-3.541c1.509-.914,3.129-1.546,4.711-2.309.13-.063.035-.251-.094-.223a18.15,18.15,0,0,0-9.415,5.9.122.122,0,0,0,.173.173Z" transform="translate(-325.178 -309.296)" fill="#fff"/>
              </g>
              <g id="Group_6025" data-name="Group 6025" transform="translate(0 15.412)">
                <path id="Path_20494" data-name="Path 20494" d="M317.62,300.745a70.613,70.613,0,0,0,2.731,7.775.132.132,0,0,0,.254-.07,27.038,27.038,0,0,0-2.848-7.763.075.075,0,0,0-.137.058Z" transform="translate(-317.617 -300.651)" fill="#fff"/>
              </g>
              <g id="Group_6026" data-name="Group 6026" transform="translate(9.532 12.808)">
                <path id="Path_20495" data-name="Path 20495" d="M334.4,298.821a30.094,30.094,0,0,1,6-2.582.084.084,0,0,0-.045-.163,17.81,17.81,0,0,0-5.97,2.712c-.02.013,0,.045.019.032Z" transform="translate(-334.374 -296.074)" fill="#fff"/>
              </g>
              <g id="Group_6027" data-name="Group 6027" transform="translate(6.783 8.289)">
                <path id="Path_20496" data-name="Path 20496" d="M329.96,293.479a15.464,15.464,0,0,0-.262-5.293.08.08,0,0,0-.156.021c.1,1.757.145,3.514.241,5.272a.089.089,0,0,0,.178,0Z" transform="translate(-329.541 -288.13)" fill="#fff"/>
              </g>
              <g id="Group_6028" data-name="Group 6028" transform="translate(12.797 0.1)">
                <path id="Path_20497" data-name="Path 20497" d="M340.115,273.884c.328,1.93,1,3.737,1.142,5.709a.051.051,0,0,0,.1,0,13.241,13.241,0,0,0-1.01-5.774.122.122,0,0,0-.236.065Z" transform="translate(-340.113 -273.735)" fill="#fff"/>
              </g>
              <g id="Group_6029" data-name="Group 6029" transform="translate(18.791 5.584)">
                <path id="Path_20498" data-name="Path 20498" d="M350.726,283.972a44.43,44.43,0,0,1,4.731-.359.089.089,0,0,0,0-.179,14.334,14.334,0,0,0-4.764.42c-.078.018-.044.13.032.118Z" transform="translate(-350.649 -283.375)" fill="#fff"/>
              </g>
              <g id="Group_6030" data-name="Group 6030" transform="translate(21.57)">
                <path id="Path_20499" data-name="Path 20499" d="M355.666,276.576c2.164-.939,4.271-1.973,6.459-2.869a.075.075,0,0,0-.04-.145,18.34,18.34,0,0,0-6.51,2.86.089.089,0,0,0,.09.154Z" transform="translate(-355.535 -273.559)" fill="#fff"/>
              </g>
            </g>
          </g>
        </g>
        <g id="No._one" data-name="No. one" transform="translate(179.537 22.858)">
          <g id="no_one" data-name="no one" transform="translate(0.231 0.215)">
            <path id="Path_20500" data-name="Path 20500" d="M974.847,129.4h3.239a1.288,1.288,0,0,0,.725-.156.592.592,0,0,0,.219-.519V115.986h-4.183v-.934H976.7a5.238,5.238,0,0,0,2.952-.752,3.116,3.116,0,0,0,1.4-1.816h1.08v16.238a.59.59,0,0,0,.219.519,1.288,1.288,0,0,0,.725.156h3.239v2.031H974.847Z" transform="translate(-974.847 -112.484)" fill="#b08c3e"/>
          </g>
          <path id="Path_20501" data-name="Path 20501" d="M985.489,128.41h-2.214c-.574,0-1.6.17-1.739-.519a5.149,5.149,0,0,1,0-.964V111.713a.227.227,0,0,0-.231-.215h-1.08a.233.233,0,0,0-.223.158c-.746,2.529-3.731,2.41-5.985,2.41a.227.227,0,0,0-.231.215v.934a.227.227,0,0,0,.231.215h3.953v11.79a3.171,3.171,0,0,1,0,.712c-.168.663-1.324.478-1.883.478h-2.07a.222.222,0,0,0-.156.058l-.008.007,0,0a.191.191,0,0,0-.063.146v2.031a.227.227,0,0,0,.231.215h11.471a.227.227,0,0,0,.231-.215v-2.031A.226.226,0,0,0,985.489,128.41Zm-7.736.383c.9-.235.68-1.328.68-2.007V115.214A.227.227,0,0,0,978.2,115h-3.952v-.5a17.775,17.775,0,0,0,2.742-.08,4.111,4.111,0,0,0,3.4-2.489h.68V125.25c0,.886-.08,1.809,0,2.694.083.909.891.9,1.682.9h2.5v1.6H974.249v-1.6h1.615A8.033,8.033,0,0,0,977.752,128.793Z" transform="translate(-973.787 -111.498)" fill="#b08c3e"/>
        </g>
      </g>
    </g>
  </g>
</svg>
